<svg xmlns="http://www.w3.org/2000/svg" xmlns:xlink="http://www.w3.org/1999/xlink" width="500" zoomAndPan="magnify" viewBox="0 0 375 374.999991" height="500" preserveAspectRatio="xMidYMid meet" version="1.0"><defs><g/><clipPath id="2a8f83fc59"><path d="M 69.042969 95 L 127 95 L 127 206 L 69.042969 206 Z M 69.042969 95 " clip-rule="nonzero"/></clipPath><clipPath id="3c19e2ae88"><path d="M 150 68.65625 L 222 68.65625 L 222 232.15625 L 150 232.15625 Z M 150 68.65625 " clip-rule="nonzero"/></clipPath></defs><path fill="#f3f3f3" d="M 255.730469 96.859375 L 250.273438 101.410156 C 248.453125 103.230469 247.542969 106.867188 249.363281 108.6875 L 283.933594 150.535156 L 249.363281 192.386719 C 247.542969 194.207031 247.542969 197.84375 250.273438 199.664062 L 255.730469 204.214844 C 257.550781 206.03125 261.1875 206.03125 263.007812 203.304688 L 304.859375 153.265625 C 305.765625 151.445312 305.765625 149.628906 304.859375 147.808594 L 263.007812 97.769531 C 261.1875 95.949219 258.460938 95.042969 255.730469 96.859375 Z M 255.730469 96.859375 " fill-opacity="1" fill-rule="nonzero"/><g clip-path="url(#2a8f83fc59)"><path fill="#f3f3f3" d="M 119.265625 204.214844 L 124.722656 199.664062 C 126.542969 197.84375 127.453125 194.207031 125.632812 192.386719 L 90.152344 150.535156 L 124.722656 108.6875 C 126.542969 106.867188 126.542969 103.230469 123.8125 101.410156 L 119.265625 96.859375 C 116.535156 95.042969 113.808594 95.949219 111.988281 97.769531 L 70.136719 147.808594 C 69.226562 149.628906 69.226562 151.445312 70.136719 153.265625 L 111.988281 203.304688 C 113.808594 205.121094 116.535156 206.03125 119.265625 204.214844 Z M 119.265625 204.214844 " fill-opacity="1" fill-rule="nonzero"/></g><g clip-path="url(#3c19e2ae88)"><path fill="#f3f3f3" d="M 202.054688 73.207031 L 151.105469 226.046875 C 150.199219 229.6875 152.925781 232.414062 155.65625 232.414062 L 163.84375 232.414062 C 166.574219 232.414062 169.300781 230.597656 170.210938 227.867188 L 221.160156 75.027344 C 222.070312 71.386719 219.339844 68.65625 216.609375 68.65625 L 208.421875 68.65625 C 205.691406 68.65625 202.964844 70.476562 202.054688 73.207031 Z M 202.054688 73.207031 " fill-opacity="1" fill-rule="nonzero"/></g><g fill="#f3f3f3" fill-opacity="1"><g transform="translate(92.911157, 272.461027)"><g><path d="M 28.28125 -24.796875 C 28.28125 -23.285156 28.035156 -21.925781 27.546875 -20.71875 C 27.066406 -19.507812 26.300781 -18.488281 25.25 -17.65625 C 24.207031 -16.832031 22.847656 -16.191406 21.171875 -15.734375 C 19.492188 -15.273438 17.453125 -15.046875 15.046875 -15.046875 L 11.171875 -15.046875 L 11.171875 -6.75 C 11.171875 -5.6875 11.234375 -4.816406 11.359375 -4.140625 C 11.492188 -3.472656 11.769531 -2.953125 12.1875 -2.578125 C 12.601562 -2.203125 13.203125 -1.953125 13.984375 -1.828125 C 14.773438 -1.703125 15.816406 -1.640625 17.109375 -1.640625 L 17.109375 0 L 1.9375 0 L 1.9375 -1.640625 C 2.9375 -1.660156 3.742188 -1.742188 4.359375 -1.890625 C 4.972656 -2.035156 5.453125 -2.28125 5.796875 -2.625 C 6.140625 -2.96875 6.367188 -3.453125 6.484375 -4.078125 C 6.597656 -4.710938 6.65625 -5.53125 6.65625 -6.53125 L 6.65625 -26.5625 C 6.65625 -27.5625 6.601562 -28.367188 6.5 -28.984375 C 6.40625 -29.609375 6.207031 -30.097656 5.90625 -30.453125 C 5.601562 -30.804688 5.164062 -31.046875 4.59375 -31.171875 C 4.019531 -31.304688 3.273438 -31.40625 2.359375 -31.46875 L 2.359375 -33.09375 L 15.859375 -33.09375 C 19.816406 -33.09375 22.875 -32.363281 25.03125 -30.90625 C 27.195312 -29.445312 28.28125 -27.410156 28.28125 -24.796875 Z M 11.171875 -17.1875 L 14.234375 -17.1875 C 17.097656 -17.1875 19.222656 -17.738281 20.609375 -18.84375 C 22.003906 -19.945312 22.703125 -21.757812 22.703125 -24.28125 C 22.703125 -26.71875 22.148438 -28.457031 21.046875 -29.5 C 19.941406 -30.550781 18.210938 -31.078125 15.859375 -31.078125 L 11.90625 -31.078125 C 11.414062 -31.078125 11.171875 -30.832031 11.171875 -30.34375 Z M 11.171875 -17.1875 "/></g></g></g><g fill="#f3f3f3" fill-opacity="1"><g transform="translate(121.573758, 272.461027)"><g><path d="M 9.546875 -6.828125 C 9.546875 -5.660156 9.570312 -4.734375 9.625 -4.046875 C 9.6875 -3.359375 9.835938 -2.832031 10.078125 -2.46875 C 10.316406 -2.113281 10.664062 -1.878906 11.125 -1.765625 C 11.59375 -1.648438 12.238281 -1.5625 13.0625 -1.5 L 13.0625 0 L 1.640625 0 L 1.640625 -1.5 C 2.460938 -1.53125 3.117188 -1.609375 3.609375 -1.734375 C 4.097656 -1.867188 4.46875 -2.109375 4.71875 -2.453125 C 4.976562 -2.796875 5.144531 -3.289062 5.21875 -3.9375 C 5.289062 -4.582031 5.328125 -5.445312 5.328125 -6.53125 L 5.328125 -11.5625 C 5.328125 -13.507812 5.304688 -15.023438 5.265625 -16.109375 C 5.222656 -17.203125 5.078125 -18.003906 4.828125 -18.515625 C 4.585938 -19.035156 4.207031 -19.34375 3.6875 -19.4375 C 3.175781 -19.539062 2.460938 -19.59375 1.546875 -19.59375 L 1.546875 -21.109375 L 9.0625 -22.734375 L 9.671875 -17.40625 L 9.84375 -17.40625 C 10.21875 -18.269531 10.679688 -19.054688 11.234375 -19.765625 C 11.796875 -20.484375 12.40625 -21.09375 13.0625 -21.59375 C 13.726562 -22.101562 14.414062 -22.5 15.125 -22.78125 C 15.84375 -23.070312 16.578125 -23.21875 17.328125 -23.21875 C 18.242188 -23.21875 18.960938 -22.992188 19.484375 -22.546875 C 20.015625 -22.097656 20.28125 -21.503906 20.28125 -20.765625 C 20.28125 -20.078125 20.066406 -19.535156 19.640625 -19.140625 C 19.210938 -18.753906 18.597656 -18.5625 17.796875 -18.5625 C 17.335938 -18.5625 16.945312 -18.617188 16.625 -18.734375 C 16.3125 -18.847656 16.035156 -18.96875 15.796875 -19.09375 C 15.554688 -19.226562 15.328125 -19.351562 15.109375 -19.46875 C 14.890625 -19.582031 14.65625 -19.640625 14.40625 -19.640625 C 13.625 -19.640625 12.847656 -19.144531 12.078125 -18.15625 C 11.304688 -17.164062 10.703125 -15.914062 10.265625 -14.40625 C 10.035156 -13.570312 9.859375 -12.628906 9.734375 -11.578125 C 9.609375 -10.535156 9.546875 -9.441406 9.546875 -8.296875 Z M 9.546875 -6.828125 "/></g></g></g><g fill="#f3f3f3" fill-opacity="1"><g transform="translate(141.212099, 272.461027)"><g><path d="M 13.96875 -23.21875 C 15.601562 -23.21875 17.148438 -22.921875 18.609375 -22.328125 C 20.066406 -21.742188 21.347656 -20.9375 22.453125 -19.90625 C 23.554688 -18.875 24.429688 -17.644531 25.078125 -16.21875 C 25.722656 -14.800781 26.046875 -13.25 26.046875 -11.5625 C 26.046875 -9.8125 25.722656 -8.207031 25.078125 -6.75 C 24.429688 -5.289062 23.554688 -4.03125 22.453125 -2.96875 C 21.347656 -1.90625 20.066406 -1.070312 18.609375 -0.46875 C 17.148438 0.132812 15.601562 0.4375 13.96875 0.4375 C 12.363281 0.4375 10.835938 0.144531 9.390625 -0.4375 C 7.941406 -1.03125 6.671875 -1.859375 5.578125 -2.921875 C 4.492188 -3.984375 3.632812 -5.25 3 -6.71875 C 2.375 -8.195312 2.0625 -9.8125 2.0625 -11.5625 C 2.0625 -13.25 2.375 -14.804688 3 -16.234375 C 3.632812 -17.671875 4.492188 -18.90625 5.578125 -19.9375 C 6.671875 -20.976562 7.941406 -21.785156 9.390625 -22.359375 C 10.835938 -22.929688 12.363281 -23.21875 13.96875 -23.21875 Z M 13.96875 -21.140625 C 12.90625 -21.140625 11.9375 -20.910156 11.0625 -20.453125 C 10.1875 -19.992188 9.441406 -19.34375 8.828125 -18.5 C 8.210938 -17.65625 7.738281 -16.640625 7.40625 -15.453125 C 7.082031 -14.265625 6.921875 -12.953125 6.921875 -11.515625 C 6.921875 -10.023438 7.082031 -8.675781 7.40625 -7.46875 C 7.738281 -6.269531 8.210938 -5.25 8.828125 -4.40625 C 9.441406 -3.5625 10.179688 -2.910156 11.046875 -2.453125 C 11.910156 -1.992188 12.882812 -1.765625 13.96875 -1.765625 C 15.0625 -1.765625 16.050781 -1.992188 16.9375 -2.453125 C 17.820312 -2.910156 18.578125 -3.566406 19.203125 -4.421875 C 19.835938 -5.285156 20.328125 -6.316406 20.671875 -7.515625 C 21.015625 -8.722656 21.1875 -10.054688 21.1875 -11.515625 C 21.1875 -12.953125 21.015625 -14.253906 20.671875 -15.421875 C 20.328125 -16.597656 19.835938 -17.609375 19.203125 -18.453125 C 18.578125 -19.304688 17.820312 -19.96875 16.9375 -20.4375 C 16.050781 -20.90625 15.0625 -21.140625 13.96875 -21.140625 Z M 13.96875 -21.140625 "/></g></g></g><g fill="#f3f3f3" fill-opacity="1"><g transform="translate(168.456605, 272.461027)"><g><path d="M 29.609375 -33.09375 L 30.8125 -33.09375 L 31.203125 -23.21875 L 29.609375 -23.21875 C 28.984375 -25.738281 27.765625 -27.710938 25.953125 -29.140625 C 24.148438 -30.578125 21.972656 -31.296875 19.421875 -31.296875 C 17.679688 -31.296875 16.125 -30.953125 14.75 -30.265625 C 13.375 -29.578125 12.210938 -28.585938 11.265625 -27.296875 C 10.316406 -26.003906 9.59375 -24.425781 9.09375 -22.5625 C 8.59375 -20.695312 8.34375 -18.59375 8.34375 -16.25 C 8.34375 -11.632812 9.300781 -8.085938 11.21875 -5.609375 C 13.132812 -3.128906 15.914062 -1.890625 19.5625 -1.890625 C 25.09375 -1.890625 28.644531 -4.828125 30.21875 -10.703125 L 31.984375 -10.703125 L 31.984375 0 L 30.46875 0 L 29.484375 -3.390625 C 26.472656 -0.835938 22.832031 0.4375 18.5625 0.4375 C 16.132812 0.4375 13.9375 0.0507812 11.96875 -0.71875 C 10.007812 -1.5 8.332031 -2.597656 6.9375 -4.015625 C 5.550781 -5.429688 4.476562 -7.15625 3.71875 -9.1875 C 2.957031 -11.226562 2.578125 -13.492188 2.578125 -15.984375 C 2.578125 -18.597656 2.976562 -20.976562 3.78125 -23.125 C 4.582031 -25.269531 5.707031 -27.113281 7.15625 -28.65625 C 8.601562 -30.207031 10.335938 -31.40625 12.359375 -32.25 C 14.378906 -33.101562 16.609375 -33.53125 19.046875 -33.53125 C 20.765625 -33.53125 22.378906 -33.285156 23.890625 -32.796875 C 25.410156 -32.304688 27.0625 -31.519531 28.84375 -30.4375 Z M 29.609375 -33.09375 "/></g></g></g><g fill="#f3f3f3" fill-opacity="1"><g transform="translate(202.061062, 272.461027)"><g><path d="M 13.96875 -23.21875 C 15.601562 -23.21875 17.148438 -22.921875 18.609375 -22.328125 C 20.066406 -21.742188 21.347656 -20.9375 22.453125 -19.90625 C 23.554688 -18.875 24.429688 -17.644531 25.078125 -16.21875 C 25.722656 -14.800781 26.046875 -13.25 26.046875 -11.5625 C 26.046875 -9.8125 25.722656 -8.207031 25.078125 -6.75 C 24.429688 -5.289062 23.554688 -4.03125 22.453125 -2.96875 C 21.347656 -1.90625 20.066406 -1.070312 18.609375 -0.46875 C 17.148438 0.132812 15.601562 0.4375 13.96875 0.4375 C 12.363281 0.4375 10.835938 0.144531 9.390625 -0.4375 C 7.941406 -1.03125 6.671875 -1.859375 5.578125 -2.921875 C 4.492188 -3.984375 3.632812 -5.25 3 -6.71875 C 2.375 -8.195312 2.0625 -9.8125 2.0625 -11.5625 C 2.0625 -13.25 2.375 -14.804688 3 -16.234375 C 3.632812 -17.671875 4.492188 -18.90625 5.578125 -19.9375 C 6.671875 -20.976562 7.941406 -21.785156 9.390625 -22.359375 C 10.835938 -22.929688 12.363281 -23.21875 13.96875 -23.21875 Z M 13.96875 -21.140625 C 12.90625 -21.140625 11.9375 -20.910156 11.0625 -20.453125 C 10.1875 -19.992188 9.441406 -19.34375 8.828125 -18.5 C 8.210938 -17.65625 7.738281 -16.640625 7.40625 -15.453125 C 7.082031 -14.265625 6.921875 -12.953125 6.921875 -11.515625 C 6.921875 -10.023438 7.082031 -8.675781 7.40625 -7.46875 C 7.738281 -6.269531 8.210938 -5.25 8.828125 -4.40625 C 9.441406 -3.5625 10.179688 -2.910156 11.046875 -2.453125 C 11.910156 -1.992188 12.882812 -1.765625 13.96875 -1.765625 C 15.0625 -1.765625 16.050781 -1.992188 16.9375 -2.453125 C 17.820312 -2.910156 18.578125 -3.566406 19.203125 -4.421875 C 19.835938 -5.285156 20.328125 -6.316406 20.671875 -7.515625 C 21.015625 -8.722656 21.1875 -10.054688 21.1875 -11.515625 C 21.1875 -12.953125 21.015625 -14.253906 20.671875 -15.421875 C 20.328125 -16.597656 19.835938 -17.609375 19.203125 -18.453125 C 18.578125 -19.304688 17.820312 -19.96875 16.9375 -20.4375 C 16.050781 -20.90625 15.0625 -21.140625 13.96875 -21.140625 Z M 13.96875 -21.140625 "/></g></g></g><g fill="#f3f3f3" fill-opacity="1"><g transform="translate(229.305569, 272.461027)"><g><path d="M 20.796875 -3.609375 L 20.625 -3.609375 C 19.59375 -2.148438 18.5 -1.109375 17.34375 -0.484375 C 16.1875 0.128906 14.816406 0.4375 13.234375 0.4375 C 11.609375 0.4375 10.113281 0.144531 8.75 -0.4375 C 7.382812 -1.03125 6.207031 -1.847656 5.21875 -2.890625 C 4.226562 -3.941406 3.453125 -5.195312 2.890625 -6.65625 C 2.335938 -8.125 2.0625 -9.71875 2.0625 -11.4375 C 2.0625 -13.125 2.335938 -14.691406 2.890625 -16.140625 C 3.453125 -17.585938 4.226562 -18.832031 5.21875 -19.875 C 6.207031 -20.925781 7.390625 -21.742188 8.765625 -22.328125 C 10.140625 -22.921875 11.628906 -23.21875 13.234375 -23.21875 C 14.609375 -23.21875 15.832031 -22.988281 16.90625 -22.53125 C 17.988281 -22.070312 19.03125 -21.335938 20.03125 -20.328125 L 20.03125 -24.71875 C 20.03125 -26.351562 20.007812 -27.710938 19.96875 -28.796875 C 19.925781 -29.890625 19.859375 -30.632812 19.765625 -31.03125 C 19.628906 -31.664062 19.226562 -32.109375 18.5625 -32.359375 C 17.90625 -32.617188 16.832031 -32.75 15.34375 -32.75 L 15.34375 -34.046875 L 24.15625 -35.671875 L 24.15625 -10.875 C 24.15625 -8.894531 24.171875 -7.265625 24.203125 -5.984375 C 24.234375 -4.710938 24.316406 -3.804688 24.453125 -3.265625 C 24.546875 -2.921875 24.65625 -2.632812 24.78125 -2.40625 C 24.90625 -2.175781 25.085938 -1.992188 25.328125 -1.859375 C 25.578125 -1.734375 25.910156 -1.640625 26.328125 -1.578125 C 26.742188 -1.523438 27.28125 -1.5 27.9375 -1.5 L 27.9375 -0.046875 L 20.796875 0.4375 Z M 19.9375 -13.109375 C 19.9375 -14.597656 19.859375 -15.726562 19.703125 -16.5 C 19.546875 -17.28125 19.238281 -17.957031 18.78125 -18.53125 C 18.125 -19.382812 17.285156 -20.03125 16.265625 -20.46875 C 15.253906 -20.914062 14.242188 -21.140625 13.234375 -21.140625 C 11.171875 -21.140625 9.601562 -20.285156 8.53125 -18.578125 C 7.457031 -16.878906 6.921875 -14.570312 6.921875 -11.65625 C 6.921875 -10.132812 7.054688 -8.753906 7.328125 -7.515625 C 7.597656 -6.285156 8 -5.234375 8.53125 -4.359375 C 9.0625 -3.484375 9.71875 -2.8125 10.5 -2.34375 C 11.289062 -1.875 12.203125 -1.640625 13.234375 -1.640625 C 13.753906 -1.640625 14.28125 -1.695312 14.8125 -1.8125 C 15.34375 -1.925781 15.859375 -2.101562 16.359375 -2.34375 C 16.859375 -2.582031 17.320312 -2.867188 17.75 -3.203125 C 18.175781 -3.535156 18.535156 -3.914062 18.828125 -4.34375 C 19.222656 -4.96875 19.503906 -5.722656 19.671875 -6.609375 C 19.847656 -7.503906 19.9375 -8.722656 19.9375 -10.265625 Z M 19.9375 -13.109375 "/></g></g></g><g fill="#f3f3f3" fill-opacity="1"><g transform="translate(257.4525, 272.461027)"><g><path d="M 22.4375 -4 C 20 -1.039062 16.976562 0.4375 13.375 0.4375 C 11.675781 0.4375 10.140625 0.15625 8.765625 -0.40625 C 7.390625 -0.96875 6.207031 -1.753906 5.21875 -2.765625 C 4.226562 -3.785156 3.460938 -5.003906 2.921875 -6.421875 C 2.378906 -7.835938 2.109375 -9.410156 2.109375 -11.140625 C 2.109375 -12.878906 2.394531 -14.492188 2.96875 -15.984375 C 3.539062 -17.472656 4.347656 -18.75 5.390625 -19.8125 C 6.441406 -20.875 7.691406 -21.707031 9.140625 -22.3125 C 10.585938 -22.914062 12.171875 -23.21875 13.890625 -23.21875 C 16.660156 -23.21875 18.804688 -22.460938 20.328125 -20.953125 C 21.847656 -19.453125 22.609375 -17.296875 22.609375 -14.484375 C 22.609375 -14.085938 22.53125 -13.84375 22.375 -13.75 C 22.21875 -13.664062 21.851562 -13.625 21.28125 -13.625 L 7.140625 -13.625 C 7.078125 -13.394531 7.03125 -13.113281 7 -12.78125 C 6.976562 -12.457031 6.96875 -12.09375 6.96875 -11.6875 C 6.96875 -10.195312 7.144531 -8.84375 7.5 -7.625 C 7.851562 -6.40625 8.367188 -5.363281 9.046875 -4.5 C 9.722656 -3.644531 10.523438 -2.984375 11.453125 -2.515625 C 12.390625 -2.046875 13.429688 -1.8125 14.578125 -1.8125 C 15.773438 -1.8125 16.890625 -2.070312 17.921875 -2.59375 C 18.953125 -3.125 20.015625 -3.992188 21.109375 -5.203125 Z M 15.34375 -15.609375 C 15.914062 -15.609375 16.375 -15.617188 16.71875 -15.640625 C 17.0625 -15.671875 17.316406 -15.726562 17.484375 -15.8125 C 17.660156 -15.90625 17.773438 -16.03125 17.828125 -16.1875 C 17.890625 -16.34375 17.921875 -16.550781 17.921875 -16.8125 C 17.921875 -18.125 17.5 -19.171875 16.65625 -19.953125 C 15.8125 -20.742188 14.660156 -21.140625 13.203125 -21.140625 C 10.097656 -21.140625 8.175781 -19.296875 7.4375 -15.609375 Z M 15.34375 -15.609375 "/></g></g></g><g fill="#f3f3f3" fill-opacity="1"><g transform="translate(132.361776, 301.471708)"><g><path d="M 0.71875 0 L 0.71875 -0.71875 C 1.207031 -0.726562 1.597656 -0.765625 1.890625 -0.828125 C 2.179688 -0.890625 2.40625 -0.992188 2.5625 -1.140625 C 2.71875 -1.296875 2.820312 -1.507812 2.875 -1.78125 C 2.9375 -2.0625 2.96875 -2.421875 2.96875 -2.859375 L 2.96875 -11.609375 C 2.96875 -12.054688 2.945312 -12.410156 2.90625 -12.671875 C 2.863281 -12.941406 2.773438 -13.15625 2.640625 -13.3125 C 2.503906 -13.46875 2.3125 -13.570312 2.0625 -13.625 C 1.8125 -13.6875 1.488281 -13.734375 1.09375 -13.765625 L 1.09375 -14.46875 L 6.703125 -14.46875 C 8.398438 -14.46875 9.71875 -14.164062 10.65625 -13.5625 C 11.59375 -12.96875 12.0625 -12.125 12.0625 -11.03125 C 12.0625 -10.207031 11.800781 -9.53125 11.28125 -9 C 10.757812 -8.476562 9.9375 -8.046875 8.8125 -7.703125 L 8.8125 -7.625 C 9.207031 -7.59375 9.546875 -7.550781 9.828125 -7.5 C 10.117188 -7.445312 10.375 -7.382812 10.59375 -7.3125 C 10.820312 -7.25 11.03125 -7.164062 11.21875 -7.0625 C 11.414062 -6.96875 11.609375 -6.859375 11.796875 -6.734375 C 12.921875 -5.941406 13.484375 -4.953125 13.484375 -3.765625 C 13.484375 -3.097656 13.296875 -2.476562 12.921875 -1.90625 C 12.554688 -1.332031 12.039062 -0.882812 11.375 -0.5625 C 11.15625 -0.445312 10.929688 -0.351562 10.703125 -0.28125 C 10.484375 -0.21875 10.222656 -0.164062 9.921875 -0.125 C 9.617188 -0.0820312 9.269531 -0.0507812 8.875 -0.03125 C 8.488281 -0.0078125 8.023438 0 7.484375 0 Z M 7.53125 -0.8125 C 9.800781 -0.8125 10.9375 -1.78125 10.9375 -3.71875 C 10.9375 -5.132812 10.351562 -6.125 9.1875 -6.6875 C 8.988281 -6.78125 8.796875 -6.859375 8.609375 -6.921875 C 8.421875 -6.984375 8.203125 -7.03125 7.953125 -7.0625 C 7.703125 -7.09375 7.40625 -7.113281 7.0625 -7.125 C 6.71875 -7.132812 6.296875 -7.140625 5.796875 -7.140625 L 4.9375 -7.140625 L 4.9375 -2.953125 C 4.9375 -2.179688 5.132812 -1.628906 5.53125 -1.296875 C 5.9375 -0.972656 6.601562 -0.8125 7.53125 -0.8125 Z M 6 -8.078125 C 6.382812 -8.078125 6.707031 -8.082031 6.96875 -8.09375 C 7.238281 -8.113281 7.46875 -8.140625 7.65625 -8.171875 C 7.84375 -8.203125 8.003906 -8.242188 8.140625 -8.296875 C 8.285156 -8.359375 8.4375 -8.4375 8.59375 -8.53125 C 8.988281 -8.78125 9.269531 -9.082031 9.4375 -9.4375 C 9.613281 -9.789062 9.703125 -10.25 9.703125 -10.8125 C 9.703125 -11.800781 9.457031 -12.507812 8.96875 -12.9375 C 8.488281 -13.375 7.734375 -13.59375 6.703125 -13.59375 L 5.265625 -13.59375 C 5.046875 -13.59375 4.9375 -13.484375 4.9375 -13.265625 L 4.9375 -8.078125 Z M 6 -8.078125 "/></g></g></g><g fill="#f3f3f3" fill-opacity="1"><g transform="translate(147.033121, 301.471708)"><g><path d="M 5.28125 2.953125 C 4.707031 4.242188 3.8125 4.890625 2.59375 4.890625 C 1.800781 4.890625 1.40625 4.59375 1.40625 4 C 1.40625 3.6875 1.515625 3.457031 1.734375 3.3125 C 1.953125 3.164062 2.359375 3.046875 2.953125 2.953125 C 3.210938 2.910156 3.4375 2.851562 3.625 2.78125 C 3.8125 2.71875 3.976562 2.632812 4.125 2.53125 C 4.28125 2.425781 4.414062 2.289062 4.53125 2.125 C 4.65625 1.957031 4.773438 1.753906 4.890625 1.515625 L 5.546875 0.203125 L 1.9375 -7.625 C 1.769531 -7.976562 1.625 -8.257812 1.5 -8.46875 C 1.382812 -8.675781 1.257812 -8.835938 1.125 -8.953125 C 1 -9.078125 0.851562 -9.160156 0.6875 -9.203125 C 0.53125 -9.242188 0.328125 -9.273438 0.078125 -9.296875 L 0.078125 -9.96875 L 5.0625 -9.96875 L 5.0625 -9.296875 C 4.21875 -9.296875 3.796875 -9.09375 3.796875 -8.6875 C 3.796875 -8.519531 3.84375 -8.257812 3.9375 -7.90625 C 4.039062 -7.5625 4.171875 -7.207031 4.328125 -6.84375 L 6.390625 -1.84375 L 6.484375 -1.84375 L 8.203125 -6.078125 C 8.359375 -6.484375 8.488281 -6.816406 8.59375 -7.078125 C 8.707031 -7.347656 8.789062 -7.566406 8.84375 -7.734375 C 8.894531 -7.898438 8.929688 -8.039062 8.953125 -8.15625 C 8.972656 -8.269531 8.984375 -8.378906 8.984375 -8.484375 C 8.984375 -8.804688 8.890625 -9.019531 8.703125 -9.125 C 8.523438 -9.238281 8.179688 -9.296875 7.671875 -9.296875 L 7.671875 -9.96875 L 11.796875 -9.96875 L 11.796875 -9.296875 C 11.566406 -9.296875 11.367188 -9.265625 11.203125 -9.203125 C 11.035156 -9.140625 10.867188 -9 10.703125 -8.78125 C 10.535156 -8.5625 10.347656 -8.242188 10.140625 -7.828125 C 9.929688 -7.421875 9.675781 -6.867188 9.375 -6.171875 Z M 5.28125 2.953125 "/></g></g></g><g fill="#f3f3f3" fill-opacity="1"><g transform="translate(159.29997, 301.471708)"><g/></g></g><g fill="#f3f3f3" fill-opacity="1"><g transform="translate(164.954458, 301.471708)"><g><path d="M 12.953125 -14.46875 L 13.484375 -14.46875 L 13.640625 -10.15625 L 12.953125 -10.15625 C 12.671875 -11.25 12.132812 -12.109375 11.34375 -12.734375 C 10.5625 -13.367188 9.613281 -13.6875 8.5 -13.6875 C 7.726562 -13.6875 7.039062 -13.535156 6.4375 -13.234375 C 5.84375 -12.929688 5.335938 -12.5 4.921875 -11.9375 C 4.503906 -11.375 4.1875 -10.679688 3.96875 -9.859375 C 3.75 -9.046875 3.640625 -8.128906 3.640625 -7.109375 C 3.640625 -5.085938 4.0625 -3.535156 4.90625 -2.453125 C 5.75 -1.367188 6.960938 -0.828125 8.546875 -0.828125 C 10.972656 -0.828125 12.53125 -2.113281 13.21875 -4.6875 L 13.984375 -4.6875 L 13.984375 0 L 13.328125 0 L 12.890625 -1.484375 C 11.578125 -0.367188 9.988281 0.1875 8.125 0.1875 C 7.050781 0.1875 6.085938 0.0195312 5.234375 -0.3125 C 4.378906 -0.65625 3.644531 -1.132812 3.03125 -1.75 C 2.425781 -2.375 1.957031 -3.128906 1.625 -4.015625 C 1.289062 -4.910156 1.125 -5.90625 1.125 -7 C 1.125 -8.132812 1.300781 -9.171875 1.65625 -10.109375 C 2.007812 -11.046875 2.5 -11.851562 3.125 -12.53125 C 3.757812 -13.207031 4.519531 -13.726562 5.40625 -14.09375 C 6.289062 -14.46875 7.265625 -14.65625 8.328125 -14.65625 C 9.078125 -14.65625 9.785156 -14.546875 10.453125 -14.328125 C 11.117188 -14.117188 11.835938 -13.78125 12.609375 -13.3125 Z M 12.953125 -14.46875 "/></g></g></g><g fill="#f3f3f3" fill-opacity="1"><g transform="translate(180.283278, 301.471708)"><g><path d="M 4.171875 -2.984375 C 4.171875 -2.472656 4.179688 -2.066406 4.203125 -1.765625 C 4.234375 -1.460938 4.300781 -1.234375 4.40625 -1.078125 C 4.507812 -0.921875 4.660156 -0.816406 4.859375 -0.765625 C 5.066406 -0.722656 5.351562 -0.6875 5.71875 -0.65625 L 5.71875 0 L 0.71875 0 L 0.71875 -0.65625 C 1.082031 -0.664062 1.367188 -0.695312 1.578125 -0.75 C 1.796875 -0.8125 1.957031 -0.914062 2.0625 -1.0625 C 2.175781 -1.21875 2.25 -1.4375 2.28125 -1.71875 C 2.3125 -2 2.328125 -2.378906 2.328125 -2.859375 L 2.328125 -5.0625 C 2.328125 -5.90625 2.316406 -6.566406 2.296875 -7.046875 C 2.285156 -7.523438 2.222656 -7.875 2.109375 -8.09375 C 2.003906 -8.320312 1.835938 -8.457031 1.609375 -8.5 C 1.390625 -8.550781 1.078125 -8.578125 0.671875 -8.578125 L 0.671875 -9.234375 L 3.96875 -9.9375 L 4.234375 -7.609375 L 4.296875 -7.609375 C 4.460938 -7.984375 4.664062 -8.328125 4.90625 -8.640625 C 5.15625 -8.953125 5.421875 -9.21875 5.703125 -9.4375 C 5.992188 -9.664062 6.296875 -9.84375 6.609375 -9.96875 C 6.929688 -10.09375 7.253906 -10.15625 7.578125 -10.15625 C 7.972656 -10.15625 8.285156 -10.054688 8.515625 -9.859375 C 8.753906 -9.660156 8.875 -9.398438 8.875 -9.078125 C 8.875 -8.773438 8.78125 -8.539062 8.59375 -8.375 C 8.40625 -8.207031 8.132812 -8.125 7.78125 -8.125 C 7.582031 -8.125 7.410156 -8.144531 7.265625 -8.1875 C 7.128906 -8.238281 7.007812 -8.289062 6.90625 -8.34375 C 6.800781 -8.40625 6.703125 -8.460938 6.609375 -8.515625 C 6.515625 -8.566406 6.410156 -8.59375 6.296875 -8.59375 C 5.960938 -8.59375 5.625 -8.375 5.28125 -7.9375 C 4.945312 -7.507812 4.6875 -6.960938 4.5 -6.296875 C 4.394531 -5.929688 4.3125 -5.519531 4.25 -5.0625 C 4.195312 -4.601562 4.171875 -4.125 4.171875 -3.625 Z M 4.171875 -2.984375 "/></g></g></g><g fill="#f3f3f3" fill-opacity="1"><g transform="translate(189.50694, 301.471708)"><g><path d="M 4.28125 -2.984375 C 4.28125 -2.492188 4.300781 -2.101562 4.34375 -1.8125 C 4.394531 -1.519531 4.484375 -1.285156 4.609375 -1.109375 C 4.734375 -0.941406 4.90625 -0.828125 5.125 -0.765625 C 5.351562 -0.703125 5.65625 -0.664062 6.03125 -0.65625 L 6.03125 0 L 0.640625 0 L 0.640625 -0.65625 C 1.015625 -0.664062 1.320312 -0.707031 1.5625 -0.78125 C 1.800781 -0.851562 1.984375 -0.96875 2.109375 -1.125 C 2.242188 -1.28125 2.332031 -1.5 2.375 -1.78125 C 2.414062 -2.0625 2.4375 -2.421875 2.4375 -2.859375 L 2.4375 -5.265625 C 2.4375 -5.992188 2.425781 -6.59375 2.40625 -7.0625 C 2.394531 -7.53125 2.363281 -7.851562 2.3125 -8.03125 C 2.25 -8.3125 2.101562 -8.503906 1.875 -8.609375 C 1.65625 -8.722656 1.226562 -8.78125 0.59375 -8.78125 L 0.59375 -9.4375 L 4.28125 -10.15625 Z M 2.125 -13.96875 C 2.125 -14.289062 2.234375 -14.5625 2.453125 -14.78125 C 2.679688 -15.007812 2.960938 -15.125 3.296875 -15.125 C 3.617188 -15.125 3.890625 -15.007812 4.109375 -14.78125 C 4.335938 -14.5625 4.453125 -14.289062 4.453125 -13.96875 C 4.453125 -13.644531 4.335938 -13.367188 4.109375 -13.140625 C 3.890625 -12.910156 3.617188 -12.796875 3.296875 -12.796875 C 2.960938 -12.796875 2.679688 -12.910156 2.453125 -13.140625 C 2.234375 -13.367188 2.125 -13.644531 2.125 -13.96875 Z M 2.125 -13.96875 "/></g></g></g><g fill="#f3f3f3" fill-opacity="1"><g transform="translate(196.175824, 301.471708)"><g><path d="M 1.609375 0 L 1.203125 0 L 1.203125 -3.234375 L 1.671875 -3.234375 C 2.160156 -1.460938 3.050781 -0.578125 4.34375 -0.578125 C 4.84375 -0.578125 5.238281 -0.695312 5.53125 -0.9375 C 5.832031 -1.1875 5.984375 -1.5625 5.984375 -2.0625 C 5.984375 -2.25 5.953125 -2.410156 5.890625 -2.546875 C 5.835938 -2.679688 5.734375 -2.816406 5.578125 -2.953125 C 5.421875 -3.097656 5.203125 -3.265625 4.921875 -3.453125 C 4.640625 -3.640625 4.265625 -3.878906 3.796875 -4.171875 C 3.367188 -4.429688 3 -4.675781 2.6875 -4.90625 C 2.375 -5.132812 2.109375 -5.363281 1.890625 -5.59375 C 1.679688 -5.820312 1.523438 -6.066406 1.421875 -6.328125 C 1.316406 -6.597656 1.265625 -6.90625 1.265625 -7.25 C 1.265625 -7.675781 1.332031 -8.066406 1.46875 -8.421875 C 1.613281 -8.785156 1.8125 -9.09375 2.0625 -9.34375 C 2.3125 -9.59375 2.601562 -9.789062 2.9375 -9.9375 C 3.28125 -10.082031 3.65625 -10.15625 4.0625 -10.15625 C 4.394531 -10.15625 4.742188 -10.097656 5.109375 -9.984375 C 5.472656 -9.878906 5.796875 -9.738281 6.078125 -9.5625 L 6.453125 -9.96875 L 6.796875 -9.96875 L 6.796875 -7.25 L 6.3125 -7.25 C 6.039062 -8.019531 5.738281 -8.566406 5.40625 -8.890625 C 5.082031 -9.210938 4.679688 -9.375 4.203125 -9.375 C 3.785156 -9.375 3.445312 -9.257812 3.1875 -9.03125 C 2.925781 -8.8125 2.796875 -8.5 2.796875 -8.09375 C 2.796875 -7.882812 2.828125 -7.703125 2.890625 -7.546875 C 2.960938 -7.390625 3.070312 -7.234375 3.21875 -7.078125 C 3.375 -6.929688 3.566406 -6.78125 3.796875 -6.625 C 4.035156 -6.46875 4.316406 -6.289062 4.640625 -6.09375 C 5.179688 -5.75 5.640625 -5.445312 6.015625 -5.1875 C 6.398438 -4.925781 6.710938 -4.664062 6.953125 -4.40625 C 7.191406 -4.144531 7.367188 -3.878906 7.484375 -3.609375 C 7.597656 -3.335938 7.65625 -3.023438 7.65625 -2.671875 C 7.65625 -1.773438 7.363281 -1.070312 6.78125 -0.5625 C 6.207031 -0.0625 5.453125 0.1875 4.515625 0.1875 C 3.535156 0.1875 2.695312 -0.09375 2 -0.65625 Z M 1.609375 0 "/></g></g></g><g fill="#f3f3f3" fill-opacity="1"><g transform="translate(204.967427, 301.471708)"><g><path d="M 0.75 -8.78125 L 0.75 -9.46875 C 1.414062 -9.863281 1.9375 -10.253906 2.3125 -10.640625 C 2.6875 -11.023438 2.972656 -11.488281 3.171875 -12.03125 L 3.71875 -12.03125 L 3.71875 -9.65625 L 6.234375 -9.65625 L 6.234375 -8.78125 L 3.71875 -8.78125 L 3.71875 -3.0625 C 3.71875 -2.625 3.738281 -2.253906 3.78125 -1.953125 C 3.832031 -1.648438 3.90625 -1.40625 4 -1.21875 C 4.101562 -1.039062 4.234375 -0.914062 4.390625 -0.84375 C 4.554688 -0.769531 4.765625 -0.734375 5.015625 -0.734375 C 5.328125 -0.734375 5.59375 -0.796875 5.8125 -0.921875 C 6.03125 -1.054688 6.25 -1.28125 6.46875 -1.59375 L 6.9375 -1.234375 C 6.757812 -0.773438 6.453125 -0.421875 6.015625 -0.171875 C 5.585938 0.0664062 5.054688 0.1875 4.421875 0.1875 C 3.585938 0.1875 2.953125 -0.0078125 2.515625 -0.40625 C 2.085938 -0.800781 1.875 -1.367188 1.875 -2.109375 L 1.875 -8.78125 Z M 0.75 -8.78125 "/></g></g></g><g fill="#f3f3f3" fill-opacity="1"><g transform="translate(212.331356, 301.471708)"><g><path d="M 4.28125 -2.984375 C 4.28125 -2.492188 4.300781 -2.101562 4.34375 -1.8125 C 4.394531 -1.519531 4.484375 -1.285156 4.609375 -1.109375 C 4.734375 -0.941406 4.90625 -0.828125 5.125 -0.765625 C 5.351562 -0.703125 5.65625 -0.664062 6.03125 -0.65625 L 6.03125 0 L 0.640625 0 L 0.640625 -0.65625 C 1.015625 -0.664062 1.320312 -0.707031 1.5625 -0.78125 C 1.800781 -0.851562 1.984375 -0.96875 2.109375 -1.125 C 2.242188 -1.28125 2.332031 -1.5 2.375 -1.78125 C 2.414062 -2.0625 2.4375 -2.421875 2.4375 -2.859375 L 2.4375 -5.265625 C 2.4375 -5.992188 2.425781 -6.59375 2.40625 -7.0625 C 2.394531 -7.53125 2.363281 -7.851562 2.3125 -8.03125 C 2.25 -8.3125 2.101562 -8.503906 1.875 -8.609375 C 1.65625 -8.722656 1.226562 -8.78125 0.59375 -8.78125 L 0.59375 -9.4375 L 4.28125 -10.15625 Z M 2.125 -13.96875 C 2.125 -14.289062 2.234375 -14.5625 2.453125 -14.78125 C 2.679688 -15.007812 2.960938 -15.125 3.296875 -15.125 C 3.617188 -15.125 3.890625 -15.007812 4.109375 -14.78125 C 4.335938 -14.5625 4.453125 -14.289062 4.453125 -13.96875 C 4.453125 -13.644531 4.335938 -13.367188 4.109375 -13.140625 C 3.890625 -12.910156 3.617188 -12.796875 3.296875 -12.796875 C 2.960938 -12.796875 2.679688 -12.910156 2.453125 -13.140625 C 2.234375 -13.367188 2.125 -13.644531 2.125 -13.96875 Z M 2.125 -13.96875 "/></g></g></g><g fill="#f3f3f3" fill-opacity="1"><g transform="translate(219.00024, 301.471708)"><g><path d="M 6.5625 -5.5625 C 5.84375 -5.289062 5.234375 -5.019531 4.734375 -4.75 C 4.242188 -4.488281 3.847656 -4.226562 3.546875 -3.96875 C 3.242188 -3.707031 3.023438 -3.441406 2.890625 -3.171875 C 2.765625 -2.910156 2.703125 -2.644531 2.703125 -2.375 C 2.703125 -1.957031 2.835938 -1.613281 3.109375 -1.34375 C 3.390625 -1.082031 3.753906 -0.953125 4.203125 -0.953125 C 4.535156 -0.953125 4.84375 -1.035156 5.125 -1.203125 C 5.40625 -1.367188 5.648438 -1.59375 5.859375 -1.875 C 6.078125 -2.15625 6.25 -2.484375 6.375 -2.859375 C 6.5 -3.242188 6.5625 -3.648438 6.5625 -4.078125 Z M 6.5625 -6.375 L 6.5625 -7.140625 C 6.5625 -8.671875 5.910156 -9.4375 4.609375 -9.4375 C 4.390625 -9.4375 4.203125 -9.414062 4.046875 -9.375 C 3.898438 -9.34375 3.773438 -9.28125 3.671875 -9.1875 C 3.578125 -9.101562 3.488281 -8.976562 3.40625 -8.8125 C 3.332031 -8.65625 3.253906 -8.457031 3.171875 -8.21875 C 3.035156 -7.851562 2.898438 -7.609375 2.765625 -7.484375 C 2.640625 -7.367188 2.453125 -7.3125 2.203125 -7.3125 C 1.578125 -7.3125 1.265625 -7.625 1.265625 -8.25 C 1.265625 -8.851562 1.582031 -9.320312 2.21875 -9.65625 C 2.851562 -9.988281 3.757812 -10.15625 4.9375 -10.15625 C 6.195312 -10.15625 7.085938 -9.929688 7.609375 -9.484375 C 8.140625 -9.035156 8.40625 -8.28125 8.40625 -7.21875 L 8.40625 -3 C 8.40625 -1.570312 8.6875 -0.859375 9.25 -0.859375 C 9.425781 -0.859375 9.59375 -0.878906 9.75 -0.921875 C 9.914062 -0.972656 10.054688 -1.09375 10.171875 -1.28125 L 10.4375 -0.828125 C 10.28125 -0.535156 10 -0.289062 9.59375 -0.09375 C 9.195312 0.09375 8.78125 0.1875 8.34375 0.1875 C 7.789062 0.1875 7.378906 0.015625 7.109375 -0.328125 C 6.835938 -0.679688 6.703125 -1.179688 6.703125 -1.828125 L 6.609375 -1.828125 C 6.285156 -1.210938 5.835938 -0.722656 5.265625 -0.359375 C 4.691406 -0.00390625 4.050781 0.171875 3.34375 0.171875 C 2.550781 0.171875 1.929688 -0.0234375 1.484375 -0.421875 C 1.035156 -0.828125 0.8125 -1.367188 0.8125 -2.046875 C 0.8125 -2.347656 0.863281 -2.632812 0.96875 -2.90625 C 1.070312 -3.1875 1.242188 -3.453125 1.484375 -3.703125 C 1.722656 -3.953125 2.035156 -4.195312 2.421875 -4.4375 C 2.804688 -4.6875 3.285156 -4.9375 3.859375 -5.1875 Z M 6.5625 -6.375 "/></g></g></g><g fill="#f3f3f3" fill-opacity="1"><g transform="translate(229.670356, 301.471708)"><g><path d="M 4.0625 -2.953125 C 4.0625 -2.441406 4.070312 -2.035156 4.09375 -1.734375 C 4.125 -1.441406 4.191406 -1.21875 4.296875 -1.0625 C 4.398438 -0.90625 4.554688 -0.800781 4.765625 -0.75 C 4.972656 -0.695312 5.257812 -0.660156 5.625 -0.640625 L 5.625 0 L 0.703125 0 L 0.703125 -0.640625 C 1.046875 -0.660156 1.320312 -0.695312 1.53125 -0.75 C 1.738281 -0.800781 1.898438 -0.898438 2.015625 -1.046875 C 2.128906 -1.203125 2.203125 -1.414062 2.234375 -1.6875 C 2.265625 -1.96875 2.28125 -2.34375 2.28125 -2.8125 L 2.28125 -5.3125 C 2.28125 -6.8125 2.238281 -7.722656 2.15625 -8.046875 C 2.125 -8.210938 2.078125 -8.347656 2.015625 -8.453125 C 1.960938 -8.554688 1.878906 -8.632812 1.765625 -8.6875 C 1.648438 -8.75 1.503906 -8.785156 1.328125 -8.796875 C 1.160156 -8.816406 0.9375 -8.828125 0.65625 -8.828125 L 0.65625 -9.4375 L 3.671875 -10.15625 L 3.890625 -8.296875 L 3.96875 -8.296875 C 4.445312 -8.878906 5.003906 -9.332031 5.640625 -9.65625 C 6.273438 -9.988281 6.96875 -10.15625 7.71875 -10.15625 C 8.300781 -10.15625 8.828125 -10.0625 9.296875 -9.875 C 9.773438 -9.6875 10.140625 -9.425781 10.390625 -9.09375 C 10.609375 -8.8125 10.757812 -8.441406 10.84375 -7.984375 C 10.9375 -7.523438 10.984375 -6.894531 10.984375 -6.09375 L 10.984375 -2.953125 C 10.984375 -2.441406 11 -2.035156 11.03125 -1.734375 C 11.0625 -1.441406 11.125 -1.21875 11.21875 -1.0625 C 11.320312 -0.90625 11.476562 -0.800781 11.6875 -0.75 C 11.894531 -0.695312 12.164062 -0.660156 12.5 -0.640625 L 12.5 0 L 7.625 0 L 7.625 -0.640625 C 7.976562 -0.648438 8.257812 -0.679688 8.46875 -0.734375 C 8.675781 -0.796875 8.832031 -0.898438 8.9375 -1.046875 C 9.039062 -1.203125 9.109375 -1.421875 9.140625 -1.703125 C 9.171875 -1.984375 9.1875 -2.351562 9.1875 -2.8125 L 9.1875 -5.296875 C 9.1875 -6.015625 9.148438 -6.617188 9.078125 -7.109375 C 9.003906 -7.597656 8.878906 -7.988281 8.703125 -8.28125 C 8.535156 -8.582031 8.3125 -8.800781 8.03125 -8.9375 C 7.757812 -9.070312 7.429688 -9.140625 7.046875 -9.140625 C 6.484375 -9.140625 5.96875 -8.988281 5.5 -8.6875 C 5.03125 -8.394531 4.664062 -7.992188 4.40625 -7.484375 C 4.332031 -7.359375 4.273438 -7.238281 4.234375 -7.125 C 4.191406 -7.007812 4.15625 -6.875 4.125 -6.71875 C 4.101562 -6.570312 4.085938 -6.398438 4.078125 -6.203125 C 4.066406 -6.015625 4.0625 -5.769531 4.0625 -5.46875 Z M 4.0625 -2.953125 "/></g></g></g></svg>